<?xml version="1.0" encoding="UTF-8"?>
<!DOCTYPE svg PUBLIC "-//W3C//DTD SVG 1.1//EN" "http://www.w3.org/Graphics/SVG/1.1/DTD/svg11.dtd">
<!-- Creator: CorelDRAW -->
<svg xmlns="http://www.w3.org/2000/svg" xml:space="preserve" width="155mm" height="25mm" style="shape-rendering: geometricprecision; text-rendering: geometricprecision; fill-rule: evenodd; clip-rule: evenodd;" viewBox="0 0 155 25" xmlns:xlink="http://www.w3.org/1999/xlink">
 <defs>
  <style type="text/css">
   <![CDATA[
    .fil0 {fill:#DC2F1C}
   ]]>
  </style>
 </defs>
 <g id="Layer_x0020_1">
  <metadata id="CorelCorpID_0Corel-Layer"/>
  <path class="fil0" d="M3.7988 1.8823l82.1285 0 -11.1985 8.5856 -4.8651 -3.7299 -5.537 0 7.6336 5.8524 -13.7312 10.5273 -54.4303 0c-1.0618,0 -1.9305,-0.8687 -1.9305,-1.9305l0 -17.3744c0,-1.0618 0.8687,-1.9305 1.9305,-1.9305zm29.3484 13.3276l0 -5.421 10.1312 0 0 5.421 -10.1312 0zm0.0037 -8.4725c-1.7429,0.0002 -3.1724,1.4262 -3.1724,3.1691l0 5.1858c0,1.7429 1.4295,3.1689 3.1724,3.1691l10.1258 0c1.7428,-0.0002 3.1704,-1.4262 3.1704,-3.1691l0 -5.1858c0,-1.7429 -1.4276,-3.1689 -3.1704,-3.1691l-10.1258 0zm-21.1355 0l0 11.524 3.2026 0 0 -8.4725 10.0635 0 0 8.4725 3.2025 0 0 -8.3549c0,-1.7429 -1.4275,-3.1689 -3.1704,-3.1691l-13.2982 0zm39.2471 4.3932l0 -1.3417 10.1311 0 0 1.3417 -10.1311 0zm0.0037 -4.3932c-1.7429,0.0002 -3.1725,1.4262 -3.1725,3.1691l0 5.1858c0,1.7429 1.4296,3.1689 3.1725,3.1691l13.2966 0 0 -3.0515 -13.3003 0 0 -1.333 13.2999 0 0 -3.9704c0,-1.7429 -1.4276,-3.1689 -3.1704,-3.1691l-10.1258 0zm68.2153 0.0006l0 11.524 -3.2025 0 0 -8.4725 -10.0635 0 0 8.4725 -3.2026 0 0 -8.3549c0,-1.7429 1.4276,-3.1689 3.1704,-3.1691l13.2982 0zm-27.8481 -4.8557l48.0805 0 0 11.985 3.1687 0 0 -11.985 8.3187 0c1.0618,0 1.9305,0.8687 1.9305,1.9305l0 17.3744c0,1.0618 -0.8687,1.9305 -1.9305,1.9305l-87.2661 0 10.8781 -8.3399 4.5447 3.4842 2.4259 0 0.0088 0 3.1023 0 -7.3132 -5.6068 7.7188 -5.9177 0 3.0522 12.8715 0 0 1.2988 -6.7013 0 0.0004 0 -3.4285 0c-2.2029,0 -3.3044,1.7688 -3.3044,3.5698 0,1.7994 1.0992,3.6004 3.2974,3.6037l0 0 0.007 0 3.4285 0 0.0046 0 9.8651 0 0 -8.3555c0,-1.7419 -1.4296,-3.1691 -3.1724,-3.1691l-12.8678 0 6.3327 -4.8551zm46.0479 16.3797l0 -11.524 -3.2025 0 0 8.4725 -10.0635 0 0 -8.4725 -3.2026 0 0 8.3549c0,1.7429 1.4276,3.1689 3.1704,3.1691l13.2982 0zm-49.6403 -4.3934c0,0.4227 0,0.92 0,1.3411l10.1311 0 0 -1.3411 -10.1311 0zm54.8416 4.3934l0 -3.0552 -3.1687 0 0 3.0552 3.1687 0z"/>
 </g>
</svg>